<svg xmlns="http://www.w3.org/2000/svg" viewBox="0 0 100 100">
  <!-- Minecraft-style cactus -->
  <rect x="30" y="20" width="40" height="60" fill="#2D8A39" />
  <!-- Cactus texture - dark green squares pattern -->
  <rect x="35" y="25" width="5" height="5" fill="#1A5C24" />
  <rect x="45" y="25" width="5" height="5" fill="#1A5C24" />
  <rect x="55" y="25" width="5" height="5" fill="#1A5C24" />
  <rect x="40" y="35" width="5" height="5" fill="#1A5C24" />
  <rect x="50" y="35" width="5" height="5" fill="#1A5C24" />
  <rect x="60" y="35" width="5" height="5" fill="#1A5C24" />
  <rect x="35" y="45" width="5" height="5" fill="#1A5C24" />
  <rect x="45" y="45" width="5" height="5" fill="#1A5C24" />
  <rect x="55" y="45" width="5" height="5" fill="#1A5C24" />
  <rect x="40" y="55" width="5" height="5" fill="#1A5C24" />
  <rect x="50" y="55" width="5" height="5" fill="#1A5C24" />
  <rect x="60" y="55" width="5" height="5" fill="#1A5C24" />
  <rect x="35" y="65" width="5" height="5" fill="#1A5C24" />
  <rect x="45" y="65" width="5" height="5" fill="#1A5C24" />
  <rect x="55" y="65" width="5" height="5" fill="#1A5C24" />
  <!-- Cactus spikes -->
  <rect x="25" y="30" width="5" height="5" fill="#1A5C24" />
  <rect x="25" y="50" width="5" height="5" fill="#1A5C24" />
  <rect x="70" y="40" width="5" height="5" fill="#1A5C24" />
  <rect x="70" y="60" width="5" height="5" fill="#1A5C24" />
</svg>