<svg xmlns="http://www.w3.org/2000/svg" viewBox="0 0 200 300">
  <!-- Base/pot -->
  <ellipse cx="100" cy="270" rx="40" ry="15" fill="#ff6b81"/>
  
  <!-- Main cactus body -->
  <path d="M80 270 Q80 180 80 120 Q80 80 100 80 Q120 80 120 120 Q120 180 120 270" fill="#2ecc71" stroke="#27ae60" stroke-width="2">
    <animate attributeName="fill" values="#ff5252;#ffeb3b;#4caf50;#2196f3;#9c27b0;#ff5252" dur="4s" repeatCount="indefinite"/>
  </path>
  
  <!-- Left arm -->
  <path d="M80 180 Q60 180 50 160 Q40 140 40 120 Q40 100 50 90 Q60 80 70 80 Q80 80 80 90 L80 180" fill="#2ecc71" stroke="#27ae60" stroke-width="2">
    <animate attributeName="fill" values="#ffeb3b;#4caf50;#2196f3;#9c27b0;#ff5252;#ffeb3b" dur="4s" repeatCount="indefinite"/>
  </path>
  
  <!-- Right arm -->
  <path d="M120 200 Q140 200 150 180 Q160 160 160 140 Q160 120 150 110 Q140 100 130 100 Q120 100 120 110 L120 200" fill="#2ecc71" stroke="#27ae60" stroke-width="2">
    <animate attributeName="fill" values="#4caf50;#2196f3;#9c27b0;#ff5252;#ffeb3b;#4caf50" dur="4s" repeatCount="indefinite"/>
  </path>
  
  <!-- Spikes -->
  <!-- Main body spikes -->
  <line x1="75" y1="100" x2="65" y2="90" stroke="#333" stroke-width="1.5">
    <animate attributeName="stroke" values="#ff5252;#ffeb3b;#4caf50;#2196f3;#9c27b0;#ff5252" dur="2s" repeatCount="indefinite"/>
  </line>
  <line x1="75" y1="130" x2="65" y2="120" stroke="#333" stroke-width="1.5">
    <animate attributeName="stroke" values="#ffeb3b;#4caf50;#2196f3;#9c27b0;#ff5252;#ffeb3b" dur="2s" repeatCount="indefinite"/>
  </line>
  <line x1="75" y1="160" x2="65" y2="150" stroke="#333" stroke-width="1.5">
    <animate attributeName="stroke" values="#4caf50;#2196f3;#9c27b0;#ff5252;#ffeb3b;#4caf50" dur="2s" repeatCount="indefinite"/>
  </line>
  <line x1="75" y1="190" x2="65" y2="180" stroke="#333" stroke-width="1.5">
    <animate attributeName="stroke" values="#2196f3;#9c27b0;#ff5252;#ffeb3b;#4caf50;#2196f3" dur="2s" repeatCount="indefinite"/>
  </line>
  <line x1="75" y1="220" x2="65" y2="210" stroke="#333" stroke-width="1.5">
    <animate attributeName="stroke" values="#9c27b0;#ff5252;#ffeb3b;#4caf50;#2196f3;#9c27b0" dur="2s" repeatCount="indefinite"/>
  </line>
  <line x1="75" y1="250" x2="65" y2="240" stroke="#333" stroke-width="1.5">
    <animate attributeName="stroke" values="#ff5252;#ffeb3b;#4caf50;#2196f3;#9c27b0;#ff5252" dur="2s" repeatCount="indefinite"/>
  </line>
  
  <line x1="125" y1="100" x2="135" y2="90" stroke="#333" stroke-width="1.5">
    <animate attributeName="stroke" values="#ffeb3b;#4caf50;#2196f3;#9c27b0;#ff5252;#ffeb3b" dur="2s" repeatCount="indefinite"/>
  </line>
  <line x1="125" y1="130" x2="135" y2="120" stroke="#333" stroke-width="1.5">
    <animate attributeName="stroke" values="#4caf50;#2196f3;#9c27b0;#ff5252;#ffeb3b;#4caf50" dur="2s" repeatCount="indefinite"/>
  </line>
  <line x1="125" y1="160" x2="135" y2="150" stroke="#333" stroke-width="1.5">
    <animate attributeName="stroke" values="#2196f3;#9c27b0;#ff5252;#ffeb3b;#4caf50;#2196f3" dur="2s" repeatCount="indefinite"/>
  </line>
  <line x1="125" y1="190" x2="135" y2="180" stroke="#333" stroke-width="1.5">
    <animate attributeName="stroke" values="#9c27b0;#ff5252;#ffeb3b;#4caf50;#2196f3;#9c27b0" dur="2s" repeatCount="indefinite"/>
  </line>
  <line x1="125" y1="220" x2="135" y2="210" stroke="#333" stroke-width="1.5">
    <animate attributeName="stroke" values="#ff5252;#ffeb3b;#4caf50;#2196f3;#9c27b0;#ff5252" dur="2s" repeatCount="indefinite"/>
  </line>
  <line x1="125" y1="250" x2="135" y2="240" stroke="#333" stroke-width="1.5">
    <animate attributeName="stroke" values="#ffeb3b;#4caf50;#2196f3;#9c27b0;#ff5252;#ffeb3b" dur="2s" repeatCount="indefinite"/>
  </line>
  
  <!-- Left arm spikes -->
  <line x1="50" y1="110" x2="40" y2="100" stroke="#333" stroke-width="1.5">
    <animate attributeName="stroke" values="#4caf50;#2196f3;#9c27b0;#ff5252;#ffeb3b;#4caf50" dur="2s" repeatCount="indefinite"/>
  </line>
  <line x1="50" y1="130" x2="40" y2="120" stroke="#333" stroke-width="1.5">
    <animate attributeName="stroke" values="#2196f3;#9c27b0;#ff5252;#ffeb3b;#4caf50;#2196f3" dur="2s" repeatCount="indefinite"/>
  </line>
  <line x1="50" y1="150" x2="40" y2="140" stroke="#333" stroke-width="1.5">
    <animate attributeName="stroke" values="#9c27b0;#ff5252;#ffeb3b;#4caf50;#2196f3;#9c27b0" dur="2s" repeatCount="indefinite"/>
  </line>
  <line x1="60" y1="170" x2="50" y2="160" stroke="#333" stroke-width="1.5">
    <animate attributeName="stroke" values="#ff5252;#ffeb3b;#4caf50;#2196f3;#9c27b0;#ff5252" dur="2s" repeatCount="indefinite"/>
  </line>
  
  <!-- Right arm spikes -->
  <line x1="150" y1="120" x2="160" y2="110" stroke="#333" stroke-width="1.5">
    <animate attributeName="stroke" values="#ffeb3b;#4caf50;#2196f3;#9c27b0;#ff5252;#ffeb3b" dur="2s" repeatCount="indefinite"/>
  </line>
  <line x1="150" y1="140" x2="160" y2="130" stroke="#333" stroke-width="1.5">
    <animate attributeName="stroke" values="#4caf50;#2196f3;#9c27b0;#ff5252;#ffeb3b;#4caf50" dur="2s" repeatCount="indefinite"/>
  </line>
  <line x1="150" y1="160" x2="160" y2="150" stroke="#333" stroke-width="1.5">
    <animate attributeName="stroke" values="#2196f3;#9c27b0;#ff5252;#ffeb3b;#4caf50;#2196f3" dur="2s" repeatCount="indefinite"/>
  </line>
  <line x1="140" y1="180" x2="150" y2="170" stroke="#333" stroke-width="1.5">
    <animate attributeName="stroke" values="#9c27b0;#ff5252;#ffeb3b;#4caf50;#2196f3;#9c27b0" dur="2s" repeatCount="indefinite"/>
  </line>
  
  <!-- Sparkle effects -->
  <circle cx="90" cy="100" r="2" fill="#fff">
    <animate attributeName="opacity" values="0;1;0" dur="1.5s" repeatCount="indefinite" />
  </circle>
  <circle cx="110" cy="120" r="2" fill="#fff">
    <animate attributeName="opacity" values="0;1;0" dur="2s" repeatCount="indefinite" />
  </circle>
  <circle cx="70" cy="150" r="2" fill="#fff">
    <animate attributeName="opacity" values="0;1;0" dur="1.8s" repeatCount="indefinite" />
  </circle>
  <circle cx="130" cy="170" r="2" fill="#fff">
    <animate attributeName="opacity" values="0;1;0" dur="1.2s" repeatCount="indefinite" />
  </circle>
</svg>