<svg xmlns="http://www.w3.org/2000/svg" viewBox="0 0 512 512">
  <defs>
    <linearGradient id="gold-gradient" x1="0%" y1="0%" x2="100%" y2="100%">
      <stop offset="0%" style="stop-color:#FFD700"/>
      <stop offset="50%" style="stop-color:#DAA520"/>
      <stop offset="100%" style="stop-color:#B8860B"/>
    </linearGradient>
  </defs>
  <path fill="url(#gold-gradient)" d="M256 16c-79.5 0-144 64.5-144 144 0 45.1 20.7 85.2 53.2 111.8-8.6 21.7-20.9 40.9-36.5 56.5-15.6 15.6-34.8 27.9-56.5 36.5C45.5 391.3 5.4 412 5.4 457.1 5.4 488 30.5 512 60.9 512h390.2c30.4 0 55.5-24 55.5-54.9 0-45.1-40.1-65.8-67.8-92.4-21.7-8.6-40.9-20.9-56.5-36.5-15.6-15.6-27.9-34.8-36.5-56.5C379.3 245.2 400 205.1 400 160c0-79.5-64.5-144-144-144zm0 32c61.9 0 112 50.1 112 112 0 33.4-14.7 63.3-37.8 83.7-7.9 7-8.7 19-1.7 26.9 1.5 1.7 3.3 3.1 5.3 4.2 17.8 9.7 34.2 21.5 48.3 35.6 14.1 14.1 25.9 30.6 35.6 48.3 1.1 2 2.5 3.8 4.2 5.3 7.9 7 19.9 6.2 26.9-1.7 20.4-23.1 50.3-37.8 83.7-37.8 16.9 0 30.5 13.6 30.5 30.5 0 16.9-13.6 30.5-30.5 30.5H60.9c-16.9 0-30.5-13.6-30.5-30.5 0-16.9 13.6-30.5 30.5-30.5 33.4 0 63.3 14.7 83.7 37.8 7 7.9 19 8.7 26.9 1.7 1.7-1.5 3.1-3.3 4.2-5.3 9.7-17.8 21.5-34.2 35.6-48.3 14.1-14.1 30.6-25.9 48.3-35.6 2-1.1 3.8-2.5 5.3-4.2 7-7.9 6.2-19.9-1.7-26.9-23.1-20.4-37.8-50.3-37.8-83.7 0-61.9 50.1-112 112-112z"/>
  <path fill="#B8860B" d="M256 16c-79.5 0-144 64.5-144 144 0 45.1 20.7 85.2 53.2 111.8-8.6 21.7-20.9 40.9-36.5 56.5-15.6 15.6-34.8 27.9-56.5 36.5C45.5 391.3 5.4 412 5.4 457.1 5.4 488 30.5 512 60.9 512h390.2c30.4 0 55.5-24 55.5-54.9 0-45.1-40.1-65.8-67.8-92.4-21.7-8.6-40.9-20.9-56.5-36.5-15.6-15.6-27.9-34.8-36.5-56.5C379.3 245.2 400 205.1 400 160c0-79.5-64.5-144-144-144zm0 32c61.9 0 112 50.1 112 112 0 33.4-14.7 63.3-37.8 83.7-7.9 7-8.7 19-1.7 26.9 1.5 1.7 3.3 3.1 5.3 4.2 17.8 9.7 34.2 21.5 48.3 35.6 14.1 14.1 25.9 30.6 35.6 48.3 1.1 2 2.5 3.8 4.2 5.3 7.9 7 19.9 6.2 26.9-1.7 20.4-23.1 50.3-37.8 83.7-37.8 16.9 0 30.5 13.6 30.5 30.5 0 16.9-13.6 30.5-30.5 30.5H60.9c-16.9 0-30.5-13.6-30.5-30.5 0-16.9 13.6-30.5 30.5-30.5 33.4 0 63.3 14.7 83.7 37.8 7 7.9 19 8.7 26.9 1.7 1.7-1.5 3.1-3.3 4.2-5.3 9.7-17.8 21.5-34.2 35.6-48.3 14.1-14.1 30.6-25.9 48.3-35.6 2-1.1 3.8-2.5 5.3-4.2 7-7.9 6.2-19.9-1.7-26.9-23.1-20.4-37.8-50.3-37.8-83.7 0-61.9 50.1-112 112-112z"/>
  <path fill="#DAA520" d="M256 48c-61.9 0-112 50.1-112 112 0 33.4 14.7 63.3 37.8 83.7 7.9 7 8.7 19 1.7 26.9-1.5 1.7-3.3 3.1-5.3 4.2-17.8 9.7-34.2 21.5-48.3 35.6-14.1 14.1-25.9 30.6-35.6 48.3-1.1 2-2.5 3.8-4.2 5.3-7.9 7-19.9 6.2-26.9-1.7-20.4-23.1-50.3-37.8-83.7-37.8-16.9 0-30.5 13.6-30.5 30.5 0 16.9 13.6 30.5 30.5 30.5h390.2c16.9 0 30.5-13.6 30.5-30.5 0-16.9-13.6-30.5-30.5-30.5-33.4 0-63.3-14.7-83.7-37.8-7-7.9-19-8.7-26.9-1.7-1.7 1.5-3.1 3.3-4.2 5.3-9.7 17.8-21.5 34.2-35.6 48.3-14.1 14.1-30.6 25.9-48.3 35.6-2 1.1-3.8 2.5-5.3 4.2-7 7.9-6.2 19.9 1.7 26.9 23.1 20.4 37.8 50.3 37.8 83.7 0 61.9-50.1 112-112 112z"/>
  <path fill="#FFD700" d="M256 80c-44.2 0-80 35.8-80 80 0 23.8 10.4 45.1 27 59.8 5.6 5 6.2 13.6 1.2 19.2-1.1 1.2-2.4 2.2-3.8 3-12.7 6.9-24.4 15.4-34.5 25.4-10.1 10.1-18.5 21.8-25.4 34.5-0.8 1.4-1.8 2.7-3 3.8-5.6 5-14.2 4.4-19.2-1.2-14.6-16.6-35.9-27-59.8-27-12.1 0-21.8 9.7-21.8 21.8 0 12.1 9.7 21.8 21.8 21.8h390.2c12.1 0 21.8-9.7 21.8-21.8 0-12.1-9.7-21.8-21.8-21.8-23.8 0-45.1-10.4-59.8-27-5-5.6-13.6-6.2-19.2-1.2-1.2 1.1-2.2 2.4-3 3.8-6.9 12.7-15.4 24.4-25.4 34.5-10.1 10.1-21.8 18.5-34.5 25.4-1.4 0.8-2.7 1.8-3.8 3-5 5.6-4.4 14.2 1.2 19.2 16.6 14.6 27 35.9 27 59.8 0 44.2-35.8 80-80 80z"/>
  <path fill="#FFD700" d="M256 112c-26.5 0-48 21.5-48 48 0 14.3 6.2 27.1 16.2 35.9 3.4 3 3.7 8.2 0.7 11.5-0.6 0.7-1.4 1.3-2.3 1.8-7.6 4.1-14.7 9.2-20.7 15.3-6.1 6.1-11.1 13.1-15.3 20.7-0.5 0.9-1.1 1.6-1.8 2.3-3.4 3-8.5 2.7-11.5-0.7-8.8-10-21.6-16.2-35.9-16.2-7.2 0-13.1 5.8-13.1 13.1 0 7.2 5.8 13.1 13.1 13.1h234.1c7.2 0 13.1-5.8 13.1-13.1 0-7.2-5.8-13.1-13.1-13.1-14.3 0-27.1-6.2-35.9-16.2-3-3.4-8.2-3.7-11.5-0.7-0.7 0.6-1.3 1.4-1.8 2.3-4.1 7.6-9.2 14.7-15.3 20.7-6.1 6.1-13.1 11.1-20.7 15.3-0.9 0.5-1.6 1.1-2.3 1.8-3 3.4-2.7 8.5 0.7 11.5 10 8.8 16.2 21.6 16.2 35.9 0 26.5-21.5 48-48 48z"/>
</svg>